<svg width="15" height="16" viewBox="0 0 15 16" fill="none" xmlns="http://www.w3.org/2000/svg">
<path d="M2.7966 1.19758C2.56227 1.20467 2.35642 1.32834 2.18411 1.50063L1.89664 1.78764L5.01218 4.95994L5.46445 4.50765C5.73702 4.23509 5.73701 3.78506 5.46445 3.5125L3.45212 1.50063C3.25721 1.30572 3.03092 1.19039 2.7966 1.19758ZM8.19729 2.37907C10.9183 2.37907 13.1196 4.58035 13.1196 7.3014C13.1125 7.62092 13.5955 7.62092 13.5884 7.3014C13.5884 4.32702 11.1717 1.91215 8.18608 1.91215C7.88734 1.94794 7.90767 2.37106 8.19731 2.37907H8.19729ZM1.5643 2.11907L1.23425 2.44866C0.694191 2.98871 0.697755 3.69534 0.697755 4.02151C0.697755 5.37118 1.23733 7.70455 4.51596 10.9832C7.7946 14.2618 10.1284 14.8018 11.4781 14.8018C11.8043 14.8019 12.5109 14.8054 13.051 14.2654L13.3494 13.9669L10.2339 10.7946L9.90704 11.1219C9.71335 11.3156 9.57042 11.3387 9.43143 11.3224C9.29245 11.3061 9.14877 11.2257 9.0437 11.1443C8.47077 10.7008 7.54315 10.0658 6.48846 9.01115C5.43377 7.95647 4.79886 7.02838 4.35529 6.45545C4.27397 6.35038 4.19356 6.20853 4.17722 6.06955C4.16083 5.93057 4.18599 5.78581 4.37955 5.59212L4.6803 5.29137L1.5643 2.11907ZM8.1973 3.31702C7.89163 3.32411 7.89163 3.77902 8.1973 3.78578C10.1417 3.78578 11.7129 5.357 11.7129 7.3014C11.7197 7.60704 12.1749 7.60704 12.1817 7.3014C12.1817 5.10367 10.395 3.31702 8.1973 3.31702ZM8.1973 4.72327C7.88449 4.72327 7.88449 5.19248 8.1973 5.19248C9.36505 5.19248 10.3062 6.13365 10.3062 7.3014C10.3062 7.61421 10.7754 7.61421 10.7754 7.3014C10.7754 5.88032 9.61838 4.72327 8.1973 4.72327ZM8.19729 6.59919C8.5884 6.59919 8.90179 6.9103 8.90179 7.3014C8.89471 7.62092 9.37764 7.62092 9.37054 7.3014C9.37054 6.65697 8.84173 6.12997 8.18608 6.12997C7.8623 6.14512 7.88473 6.61435 8.19731 6.59919H8.19729ZM11.4891 9.83053C11.3085 9.83053 11.1282 9.89885 10.9919 10.0352L10.5653 10.4623L13.6813 13.635L13.999 13.3173C14.1713 13.145 14.2944 12.9373 14.3016 12.703C14.3087 12.4687 14.1939 12.2424 13.999 12.0475L11.9867 10.0352C11.8504 9.89889 11.6696 9.83053 11.4891 9.83053Z" fill="#F5F5F5"/>
</svg>
